<svg xmlns="http://www.w3.org/2000/svg" width="380" height="80" viewBox="0 0 380 80">
  <g fill="none" fill-rule="evenodd" transform="translate(0 -4)">
    <rect width="361" height="88"/>
    <text fill="#1B2C3B" font-family="AvenirNext-Bold, Avenir Next" font-size="26" font-weight="bold">
      <tspan x="68" y="51">Symbol support</tspan>
    </text>
    <g transform="translate(0 20)">
      <path fill="#C44CE6" fill-rule="nonzero" d="M24,48 C0.185166005,48 0,37.254834 0,24 C0,10.745166 0.185166005,2.91647602e-15 24,0 C47.814834,0 48,10.745166 48,24 C48,37.254834 47.814834,48 24,48 Z"/>
      <circle cx="24" cy="24" r="17" fill="#9119B3"/>
      <g fill="#FFF" transform="translate(16 15)">
        <g fill-rule="nonzero" transform="translate(0 .818)">
          <path d="M3.28 3.76363636C4.4 2.45454545 6.16 1.63636364 8 1.63636364 11.52 1.63636364 14.4 4.58181818 14.4 8.18181818 14.4 8.34545455 14.4 8.59090909 14.4 8.75454545L15.76 10.1454545C15.92 9.49090909 16 8.83636364 16 8.18181818 16 3.68181818 12.4-1.77635684e-15 8-1.77635684e-15 5.68-3.22973971e-16 3.6.981818182 2.16 2.61818182L3.28 3.76363636zM12.56 12.7636364C11.44 13.9909091 9.76 14.7272727 8 14.7272727 4.48 14.7272727 1.6 11.7818182 1.6 8.18181818 1.6 8.01818182 1.6 7.77272727 1.6 7.60909091L.24 6.21818182C.08 6.87272727 0 7.52727273 0 8.18181818 0 12.6818182 3.6 16.3636364 8 16.3636364 10.24 16.3636364 12.24 15.3818182 13.68 13.9090909L12.56 12.7636364z"/>
        </g>
        <polygon fill-rule="nonzero" points="6.8 5.318 1.6 5.727 2 .409"/>
        <polygon fill-rule="nonzero" points="9.2 12.682 14.4 12.273 14 17.591"/>
      </g>
    </g>
  </g>
</svg>
