<svg xmlns="http://www.w3.org/2000/svg" width="380" height="80" viewBox="0 0 380 80">
  <g fill="none" fill-rule="evenodd" transform="translate(0 -4)">
    <rect width="361" height="88"/>
    <text fill="#1B2C3B" font-family="AvenirNext-Bold, Avenir Next" font-size="26" font-weight="bold">
      <tspan x="68" y="51">Layer padding</tspan>
    </text>
    <g transform="translate(0 20)">
      <path fill="#8ADC34" fill-rule="nonzero" d="M24,48 C0.185166005,48 0,37.254834 0,24 C0,10.745166 0.185166005,2.91647602e-15 24,0 C47.814834,0 48,10.745166 48,24 C48,37.254834 47.814834,48 24,48 Z"/>
      <rect width="16" height="16" x="16" y="16" fill="#57A900" rx="2"/>
      <rect width="2" height="12" x="23" y="4" fill="#FFF"/>
      <rect width="2" height="12" x="23" y="32" fill="#FFF"/>
      <rect width="10" height="2" x="19" y="4" fill="#FFF"/>
      <rect width="2" height="10" x="42" y="19" fill="#FFF"/>
      <rect width="2" height="10" x="4" y="19" fill="#FFF"/>
      <rect width="12" height="2" x="32" y="23" fill="#FFF"/>
      <rect width="12" height="2" x="4" y="23" fill="#FFF"/>
      <rect width="10" height="2" x="19" y="42" fill="#FFF"/>
    </g>
  </g>
</svg>
