<svg xmlns="http://www.w3.org/2000/svg" width="189" height="48" viewBox="0 0 189 48">
  <g fill="none" fill-rule="evenodd" transform="translate(0 2)">
    <rect width="189" height="48"/>
    <text fill="#1B2C3B" font-family="AvenirNext-Bold, Avenir Next" font-size="12" font-weight="bold">
      <tspan x="33" y="33">Automatically applied</tspan>
    </text>
    <text fill="#1B2C3B" font-family="AvenirNext-Heavy, Avenir Next" font-size="8" font-weight="600" opacity=".5">
      <tspan x="33" y="19">JUMP TO</tspan>
    </text>
    <path fill="#1B2C3B" fill-rule="nonzero" d="M6.34514198,0.307364983 L6.34514198,2.0637644 C2.15362467,2.0637644 -1.3184275,3.34251174 0.490746353,9 C0.206306642,5.46387214 2.07425612,4.35356832 6.34514198,4.35356832 L6.34514198,6.07714892 C6.34514198,6.20130683 6.41979132,6.31360252 6.54463589,6.3614468 C6.58582174,6.37647228 6.62915267,6.38477584 6.67291263,6.38477584 C6.75914548,6.38477584 6.8445203,6.35393406 6.90844415,6.29422756 L10.9021836,3.41645292 C11.0326055,3.29664449 11.0326055,3.10091786 10.9021836,2.98150484 L6.90844415,0.0898909443 C6.81277288,0.00250592164 6.66862244,-0.0243817777 6.54463589,0.0234625108 C6.4193623,0.0709113919 6.34514198,0.18281167 6.34514198,0.307364983 Z" opacity=".5" transform="translate(76 12)"/>
    <g transform="translate(0 8)">
      <path fill="#8A8E93" fill-rule="nonzero" d="M12.5,25 C0.0964406276,25 0,19.4035594 0,12.5 C0,5.59644062 0.0964406276,1.51899793e-15 12.5,0 C24.9035594,0 25,5.59644062 25,12.5 C25,19.4035594 24.9035594,25 12.5,25 Z"/>
      <polygon fill="#FFF" points="18.705 16.079 17.264 16.501 17.686 15.059 17.264 13.618 18.705 14.04 20.147 13.618 19.725 15.059 20.147 16.501" transform="rotate(-45 18.705 15.06)"/>
      <polygon fill="#575B60" points="19.747 8.787 18.305 9.209 18.728 7.768 18.305 6.326 19.747 6.748 21.189 6.326 20.766 7.768 21.189 9.209" transform="rotate(-45 19.747 7.768)"/>
      <polygon fill="#FFF" points="11.358 6.099 9.219 6.726 9.846 4.587 9.219 2.448 11.358 3.075 13.496 2.448 12.87 4.587 13.496 6.726" transform="rotate(-45 11.358 4.587)"/>
      <g transform="rotate(45 -2.13 22.013)">
        <rect width="3.125" height="11.707" y="3.763" fill="#575B60" rx="1"/>
        <path fill="#FFF" d="M1,0 L2.125,0 C2.67728475,-1.01453063e-16 3.125,0.44771525 3.125,1 L3.125,5.01736415 L0,5.01736415 L0,1 C-6.76353751e-17,0.44771525 0.44771525,1.01453063e-16 1,0 Z"/>
      </g>
    </g>
  </g>
</svg>
