<svg xmlns="http://www.w3.org/2000/svg" width="189" height="48" viewBox="0 0 189 48">
  <g fill="none" fill-rule="evenodd" transform="translate(0 2)">
    <rect width="189" height="48"/>
    <text fill="#1B2C3B" font-family="AvenirNext-Bold, Avenir Next" font-size="12" font-weight="bold">
      <tspan x="33" y="33">Symbol support</tspan>
    </text>
    <text fill="#1B2C3B" font-family="AvenirNext-Heavy, Avenir Next" font-size="8" font-weight="600" opacity=".5">
      <tspan x="33" y="19">JUMP TO</tspan>
    </text>
    <path fill="#1B2C3B" fill-rule="nonzero" d="M6.34514198,0.307364983 L6.34514198,2.0637644 C2.15362467,2.0637644 -1.3184275,3.34251174 0.490746353,9 C0.206306642,5.46387214 2.07425612,4.35356832 6.34514198,4.35356832 L6.34514198,6.07714892 C6.34514198,6.20130683 6.41979132,6.31360252 6.54463589,6.3614468 C6.58582174,6.37647228 6.62915267,6.38477584 6.67291263,6.38477584 C6.75914548,6.38477584 6.8445203,6.35393406 6.90844415,6.29422756 L10.9021836,3.41645292 C11.0326055,3.29664449 11.0326055,3.10091786 10.9021836,2.98150484 L6.90844415,0.0898909443 C6.81277288,0.00250592164 6.66862244,-0.0243817777 6.54463589,0.0234625108 C6.4193623,0.0709113919 6.34514198,0.18281167 6.34514198,0.307364983 Z" opacity=".5" transform="translate(76 12)"/>
    <g transform="translate(0 8)">
      <path fill="#C44CE6" fill-rule="nonzero" d="M12.5,25 C0.0964406276,25 0,19.4035594 0,12.5 C0,5.59644062 0.0964406276,1.51899793e-15 12.5,0 C24.9035594,0 25,5.59644062 25,12.5 C25,19.4035594 24.9035594,25 12.5,25 Z"/>
      <circle cx="12.5" cy="12.5" r="8.854" fill="#9119B3"/>
      <g fill="#FFF" transform="translate(8.333 7.813)">
        <g fill-rule="nonzero" transform="translate(0 .426)">
          <path d="M1.70833333 1.96022727C2.29166667 1.27840909 3.20833333.852272727 4.16666667.852272727 6 .852272727 7.5 2.38636364 7.5 4.26136364 7.5 4.34659091 7.5 4.47443182 7.5 4.55965909L8.20833333 5.28409091C8.29166667 4.94318182 8.33333333 4.60227273 8.33333333 4.26136364 8.33333333 1.91761364 6.45833333-1.77635684e-15 4.16666667-1.77635684e-15 2.95833333-1.0193866e-15 1.875.511363636 1.125 1.36363636L1.70833333 1.96022727zM6.54166667 6.64772727C5.95833333 7.28693182 5.08333333 7.67045455 4.16666667 7.67045455 2.33333333 7.67045455.833333333 6.13636364.833333333 4.26136364.833333333 4.17613636.833333333 4.04829545.833333333 3.96306818L.125 3.23863636C.0416666667 3.57954545 0 3.92045455 0 4.26136364 0 6.60511364 1.875 8.52272727 4.16666667 8.52272727 5.33333333 8.52272727 6.375 8.01136364 7.125 7.24431818L6.54166667 6.64772727z"/>
        </g>
        <polygon fill-rule="nonzero" points="3.542 2.77 .833 2.983 1.042 .213"/>
        <polygon fill-rule="nonzero" points="4.792 6.605 7.5 6.392 7.292 9.162"/>
      </g>
    </g>
  </g>
</svg>
